<svg fill="black" xmlns="http://www.w3.org/2000/svg" width="16" height="16" viewBox="0 0 30.849 30.849">
    <path stroke="white" stroke-width="1" id="Icon_metro-eyedropper" data-name="Icon metro-eyedropper" d="M32.29,3.057a3.856,3.856,0,0,0-5.453,0L21.651,8.243,17.995,4.586l-4.09,4.09,3.206,3.206L2.888,26.105a1.082,1.082,0,0,0-.31.887H2.571v4.82a.964.964,0,0,0,.964.964H8.475a1.081,1.081,0,0,0,.767-.318L23.465,18.236l3.206,3.206,4.09-4.09L27.1,13.7,32.29,8.511a3.856,3.856,0,0,0,0-5.453ZM7.785,30.849H4.5V27.562L18.645,13.416,21.931,16.7Z" transform="translate(-2.571 -1.928)"/>
</svg>

