<svg xmlns="http://www.w3.org/2000/svg" width="26.529" height="26.504" viewBox="0 0 26.529 26.504">
  <g id="Icon_ionic-md-color-fill" data-name="Icon ionic-md-color-fill" transform="translate(6.491 7.618)">
    <path id="Path_8" data-name="Path 8" d="M6.924,4.7l1.655,3L2.25,14.007,10.5,21.982l6.817-6.647,2.433-.51L8.262,3.375Zm8.23,9.3h-9.2l4.6-4.576Z" transform="translate(-2.25 -3.375)" stroke="#fff" stroke-width="0.4"/>
    <path id="Path_9" data-name="Path 9" d="M28.313,21.375s-2.536,2.751-2.536,4.12a2.537,2.537,0,0,0,5.072,0C30.849,24.126,28.313,21.375,28.313,21.375Z" transform="translate(-10.81 -9.924)"/>
  </g>
  <g id="Polygon_1" data-name="Polygon 1" transform="translate(0 2.611) rotate(-20)">
    <path d="M 6.89517879486084 9.342122077941895 L 0.738519012928009 9.342122077941895 C 0.6373590230941772 9.342122077941895 0.5468189716339111 9.294082641601562 0.4900989830493927 9.210311889648438 C 0.4333890080451965 9.126542091369629 0.4224089980125427 9.024632453918457 0.4599789977073669 8.930702209472656 L 3.538309097290039 1.234872341156006 C 3.608299016952515 1.059892296791077 3.769198894500732 1.046292304992676 3.816848993301392 1.046292304992676 C 3.864499092102051 1.046292304992676 4.025399208068848 1.059892296791077 4.095388889312744 1.234872341156006 L 7.173718929290771 8.930702209472656 C 7.211288928985596 9.024632453918457 7.200308799743652 9.126542091369629 7.143599033355713 9.210311889648438 C 7.086878776550293 9.294082641601562 6.996338844299316 9.342122077941895 6.89517879486084 9.342122077941895 Z" stroke="none"/>
    <path d="M 3.816848993301392 1.246292114257812 C 3.771919012069702 1.246292114257812 3.740679025650024 1.26743221282959 3.7239990234375 1.309152603149414 L 0.6456689834594727 9.004972457885742 C 0.6293787956237793 9.045692443847656 0.6421389579772949 9.078142166137695 0.6557087898254395 9.098182678222656 C 0.6692790985107422 9.118232727050781 0.6946687698364258 9.142122268676758 0.7385191917419434 9.142122268676758 L 6.89517879486084 9.142122268676758 C 6.939028739929199 9.142122268676758 6.964418888092041 9.118232727050781 6.977989196777344 9.098182678222656 C 6.991559028625488 9.078142166137695 7.004319190979004 9.045692443847656 6.988029003143311 9.004981994628906 L 3.909698963165283 1.309152603149414 C 3.893018960952759 1.26744270324707 3.861778974533081 1.246292114257812 3.816848993301392 1.246292114257812 M 3.816848993301392 0.8462896347045898 C 4.00706148147583 0.8462896347045898 4.197274208068848 0.9510574340820312 4.281088829040527 1.160592079162598 L 7.359418869018555 8.856422424316406 C 7.49078893661499 9.18486213684082 7.248908996582031 9.542121887207031 6.89517879486084 9.542121887207031 L 0.7385191917419434 9.542121887207031 C 0.384788990020752 9.542121887207031 0.142909049987793 9.18486213684082 0.2742791175842285 8.856422424316406 L 3.352609157562256 1.160592079162598 C 3.436423778533936 0.9510574340820312 3.626636505126953 0.8462896347045898 3.816848993301392 0.8462896347045898 Z" stroke="none" fill="#fff"/>
  </g>
</svg>
